HIERARCHY
ROOT Hips
{
	OFFSET 0.000000 83.214638 0.000000
	CHANNELS 6 Xposition Yposition Zposition Xrotation Yrotation Zrotation
	JOINT Pelvis
	{
		OFFSET 0.000000 0.000000 0.000000
		CHANNELS 3 Xrotation Yrotation Zrotation
		JOINT LeftUpLeg
		{
			OFFSET 8.479700 -4.795502 -0.379100
			CHANNELS 3 Xrotation Yrotation Zrotation
			JOINT LeftLeg
			{
				OFFSET 0.024144 -32.555107 0.112900
				CHANNELS 3 Xrotation Yrotation Zrotation
				JOINT LeftFoot
				{
					OFFSET -0.024144 -32.638630 -3.012600
					CHANNELS 3 Xrotation Yrotation Zrotation
					JOINT LeftToeBase
					{
						OFFSET 0.970200 -13.225400 11.864200
						CHANNELS 3 Xrotation Yrotation Zrotation
						End Site
						{
							OFFSET 0.000000 12.319262 0.000000
						}
					}
					JOINT LFootTongue
					{
						OFFSET 1.142400 -1.059800 6.665200
						CHANNELS 3 Xrotation Yrotation Zrotation
						End Site
						{
							OFFSET 0.000000 12.319262 0.000000
						}
					}
				}
				JOINT LeftPantLeg
				{
					OFFSET 0.918482 -16.533964 -2.284700
					CHANNELS 3 Xrotation Yrotation Zrotation
					End Site
					{
						OFFSET 0.350399 24.744368 0.000000
					}
				}
			}
		}
		JOINT RightUpLeg
		{
			OFFSET -8.479700 -4.795502 -0.379100
			CHANNELS 3 Xrotation Yrotation Zrotation
			JOINT RightLeg
			{
				OFFSET -0.023144 -32.555092 0.112900
				CHANNELS 3 Xrotation Yrotation Zrotation
				JOINT RightFoot
				{
					OFFSET 0.023144 -32.638641 -3.012700
					CHANNELS 3 Xrotation Yrotation Zrotation
					JOINT RightToeBase
					{
						OFFSET -0.970200 -13.225400 11.864200
						CHANNELS 3 Xrotation Yrotation Zrotation
						End Site
						{
							OFFSET 0.000000 12.319244 0.000000
						}
					}
					JOINT RFootTongue
					{
						OFFSET -1.142200 -1.059800 6.665200
						CHANNELS 3 Xrotation Yrotation Zrotation
						End Site
						{
							OFFSET 0.000000 12.319243 0.000000
						}
					}
				}
				JOINT RightPantLeg
				{
					OFFSET -0.919482 -16.533978 -2.284800
					CHANNELS 3 Xrotation Yrotation Zrotation
					End Site
					{
						OFFSET -0.350400 24.744419 0.000000
					}
				}
			}
		}
	}
	JOINT Spine
	{
		OFFSET 0.000000 7.722000 1.166200
		CHANNELS 3 Xrotation Yrotation Zrotation
		JOINT Spine1
		{
			OFFSET 0.000000 12.024101 0.248800
			CHANNELS 3 Xrotation Yrotation Zrotation
			JOINT Spine2
			{
				OFFSET 0.000000 11.502998 -0.491200
				CHANNELS 3 Xrotation Yrotation Zrotation
				JOINT Neck
				{
					OFFSET 0.000000 18.430702 -3.123100
					CHANNELS 3 Xrotation Yrotation Zrotation
					JOINT Head
					{
						OFFSET 0.000000 9.051102 1.034000
						CHANNELS 3 Xrotation Yrotation Zrotation
						JOINT HairB
						{
							OFFSET 0.208400 24.786102 24.822300
							CHANNELS 3 Xrotation Yrotation Zrotation
							End Site
							{
								OFFSET 0.000000 32.263779 0.000000
							}
						}
						JOINT HairA
						{
							OFFSET -7.081100 24.428299 23.196600
							CHANNELS 3 Xrotation Yrotation Zrotation
							End Site
							{
								OFFSET 0.000000 32.263779 0.000000
							}
						}
						JOINT Hat
						{
							OFFSET 16.728800 15.048294 -15.439601
							CHANNELS 3 Xrotation Yrotation Zrotation
							End Site
							{
								OFFSET 0.000000 32.263779 0.000000
							}
						}
					}
				}
				JOINT LeftShoulder
				{
					OFFSET 6.197800 13.665199 -4.064700
					CHANNELS 3 Xrotation Yrotation Zrotation
					JOINT LeftArm
					{
						OFFSET 7.778100 -0.187103 -1.709300
						CHANNELS 3 Xrotation Yrotation Zrotation
						JOINT LeftForeArm
						{
							OFFSET 22.049376 0.000000 0.000000
							CHANNELS 3 Xrotation Yrotation Zrotation
							JOINT LeftHand
							{
								OFFSET 23.009392 0.000000 0.000000
								CHANNELS 3 Xrotation Yrotation Zrotation
								JOINT LeftHandThumb1
								{
									OFFSET 3.507191 -2.063065 3.133727
									CHANNELS 3 Xrotation Yrotation Zrotation
									JOINT LeftHandThumb2
									{
										OFFSET 3.101337 -1.790558 1.790558
										CHANNELS 3 Xrotation Yrotation Zrotation
										JOINT LeftHandThumb3
										{
											OFFSET 3.058640 -1.765907 1.765906
											CHANNELS 3 Xrotation Yrotation Zrotation
											End Site
											{
												OFFSET -0.415260 3.926476 -0.049563
											}
										}
									}
								}
								JOINT LeftHandIndex1
								{
									OFFSET 11.334419 -0.901459 3.706815
									CHANNELS 3 Xrotation Yrotation Zrotation
									JOINT LeftHandIndex2
									{
										OFFSET 3.283112 0.000000 0.000000
										CHANNELS 3 Xrotation Yrotation Zrotation
										JOINT LeftHandIndex3
										{
											OFFSET 3.323853 0.000000 0.000000
											CHANNELS 3 Xrotation Yrotation Zrotation
											End Site
											{
												OFFSET -1.135597 3.097809 0.402452
											}
										}
									}
								}
								JOINT LeftHandMiddle1
								{
									OFFSET 11.335861 0.000000 0.000000
									CHANNELS 3 Xrotation Yrotation Zrotation
									JOINT LeftHandMiddle2
									{
										OFFSET 3.410492 0.000000 0.000000
										CHANNELS 3 Xrotation Yrotation Zrotation
										JOINT LeftHandMiddle3
										{
											OFFSET 3.312172 0.000000 0.000000
											CHANNELS 3 Xrotation Yrotation Zrotation
											End Site
											{
												OFFSET -1.150200 3.080154 0.400270
											}
										}
									}
								}
								JOINT LeftHandRing1
								{
									OFFSET 11.514786 -0.013176 -3.003090
									CHANNELS 3 Xrotation Yrotation Zrotation
									JOINT LeftHandRing2
									{
										OFFSET 3.053307 0.000000 0.000000
										CHANNELS 3 Xrotation Yrotation Zrotation
										JOINT LeftHandRing3
										{
											OFFSET 3.295807 0.000000 0.000000
											CHANNELS 3 Xrotation Yrotation Zrotation
											End Site
											{
												OFFSET -1.281006 3.013344 0.375733
											}
										}
									}
								}
								JOINT LeftHandPinky1
								{
									OFFSET 10.518692 -0.960396 -5.730441
									CHANNELS 3 Xrotation Yrotation Zrotation
									JOINT LeftHandPinky2
									{
										OFFSET 2.861649 0.000000 0.000000
										CHANNELS 3 Xrotation Yrotation Zrotation
										JOINT LeftHandPinky3
										{
											OFFSET 2.863380 0.000000 0.000000
											CHANNELS 3 Xrotation Yrotation Zrotation
											End Site
											{
												OFFSET -0.843597 2.711159 0.369971
											}
										}
									}
								}
							}
							JOINT LSleeve
							{
								OFFSET 6.676277 -0.344902 -1.011730
								CHANNELS 3 Xrotation Yrotation Zrotation
								End Site
								{
									OFFSET 0.000000 14.885353 0.000000
								}
							}
						}
					}
				}
				JOINT RightShoulder
				{
					OFFSET -6.197800 13.665199 -4.064700
					CHANNELS 3 Xrotation Yrotation Zrotation
					JOINT RightArm
					{
						OFFSET -7.778100 -0.187103 -1.709300
						CHANNELS 3 Xrotation Yrotation Zrotation
						JOINT RightForeArm
						{
							OFFSET -22.049376 0.000000 0.000000
							CHANNELS 3 Xrotation Yrotation Zrotation
							JOINT RightHand
							{
								OFFSET -23.009392 0.000000 0.000000
								CHANNELS 3 Xrotation Yrotation Zrotation
								JOINT RightHandThumb1
								{
									OFFSET -3.507191 -2.063065 3.133727
									CHANNELS 3 Xrotation Yrotation Zrotation
									JOINT RightHandThumb2
									{
										OFFSET -3.101337 -1.790558 1.790558
										CHANNELS 3 Xrotation Yrotation Zrotation
										JOINT RightHandThumb3
										{
											OFFSET -3.058640 -1.765907 1.765906
											CHANNELS 3 Xrotation Yrotation Zrotation
											End Site
											{
												OFFSET 0.415260 3.926476 -0.049563
											}
										}
									}
								}
								JOINT RightHandIndex1
								{
									OFFSET -11.334419 -0.901459 3.706815
									CHANNELS 3 Xrotation Yrotation Zrotation
									JOINT RightHandIndex2
									{
										OFFSET -3.283112 0.000000 0.000000
										CHANNELS 3 Xrotation Yrotation Zrotation
										JOINT RightHandIndex3
										{
											OFFSET -3.323853 0.000000 0.000000
											CHANNELS 3 Xrotation Yrotation Zrotation
											End Site
											{
												OFFSET 1.135597 3.097809 0.402452
											}
										}
									}
								}
								JOINT RightHandMiddle1
								{
									OFFSET -11.335861 0.000000 0.000000
									CHANNELS 3 Xrotation Yrotation Zrotation
									JOINT RightHandMiddle2
									{
										OFFSET -3.410492 0.000000 0.000000
										CHANNELS 3 Xrotation Yrotation Zrotation
										JOINT RightHandMiddle3
										{
											OFFSET -3.312172 0.000000 0.000000
											CHANNELS 3 Xrotation Yrotation Zrotation
											End Site
											{
												OFFSET 1.150200 3.080154 0.400270
											}
										}
									}
								}
								JOINT RightHandRing1
								{
									OFFSET -11.514786 -0.013176 -3.003090
									CHANNELS 3 Xrotation Yrotation Zrotation
									JOINT RightHandRing2
									{
										OFFSET -3.053307 0.000000 0.000000
										CHANNELS 3 Xrotation Yrotation Zrotation
										JOINT RightHandRing3
										{
											OFFSET -3.295807 0.000000 0.000000
											CHANNELS 3 Xrotation Yrotation Zrotation
											End Site
											{
												OFFSET 1.281006 3.013344 0.375733
											}
										}
									}
								}
								JOINT RightHandPinky1
								{
									OFFSET -10.518692 -0.960396 -5.730441
									CHANNELS 3 Xrotation Yrotation Zrotation
									JOINT RightHandPinky2
									{
										OFFSET -2.861649 0.000000 0.000000
										CHANNELS 3 Xrotation Yrotation Zrotation
										JOINT RightHandPinky3
										{
											OFFSET -2.863380 0.000000 0.000000
											CHANNELS 3 Xrotation Yrotation Zrotation
											End Site
											{
												OFFSET 0.843597 2.711159 0.369971
											}
										}
									}
								}
							}
							JOINT RSleeve
							{
								OFFSET -6.676277 -0.344902 -1.011730
								CHANNELS 3 Xrotation Yrotation Zrotation
								End Site
								{
									OFFSET 0.000000 14.885353 0.000000
								}
							}
						}
					}
				}
				JOINT Backpack
				{
					OFFSET 0.000000 -2.471497 36.677502
					CHANNELS 3 Xrotation Yrotation Zrotation
					End Site
					{
						OFFSET 0.000000 20.427315 0.000000
					}
				}
				JOINT Hood
				{
					OFFSET 0.000000 18.754097 -10.431000
					CHANNELS 3 Xrotation Yrotation Zrotation
					JOINT Hood1
					{
						OFFSET 0.000000 -5.011002 -7.685901
						CHANNELS 3 Xrotation Yrotation Zrotation
						End Site
						{
							OFFSET 0.000000 9.175140 0.000000
						}
					}
				}
				JOINT LHoodieString
				{
					OFFSET 5.250500 16.397697 3.089900
					CHANNELS 3 Xrotation Yrotation Zrotation
					JOINT LHoodieString1
					{
						OFFSET 0.257700 -6.364304 3.694600
						CHANNELS 3 Xrotation Yrotation Zrotation
						JOINT LHoodieString2
						{
							OFFSET 0.000000 -9.643799 2.679100
							CHANNELS 3 Xrotation Yrotation Zrotation
							End Site
							{
								OFFSET 0.000000 10.009018 0.000000
							}
						}
					}
				}
				JOINT RHoodieString
				{
					OFFSET -5.250500 16.397697 3.089900
					CHANNELS 3 Xrotation Yrotation Zrotation
					JOINT RHoodieString1
					{
						OFFSET -0.257700 -6.364304 3.694600
						CHANNELS 3 Xrotation Yrotation Zrotation
						JOINT RHoodieString2
						{
							OFFSET 0.000000 -9.643799 2.679100
							CHANNELS 3 Xrotation Yrotation Zrotation
							End Site
							{
								OFFSET 0.000000 10.009018 0.000000
							}
						}
					}
				}
			}
			JOINT LBackpack_Strap
			{
				OFFSET 15.223200 -7.719803 -6.610900
				CHANNELS 3 Xrotation Yrotation Zrotation
				End Site
				{
					OFFSET 0.000000 16.040596 0.000000
				}
			}
			JOINT RBackpack_Strap
			{
				OFFSET -15.223000 -7.719803 -6.610900
				CHANNELS 3 Xrotation Yrotation Zrotation
				End Site
				{
					OFFSET 0.000000 16.040596 0.000000
				}
			}
		}
	}
	JOINT BoyFacialAnim_Joint
	{
		OFFSET 1.000000 -82.208099 -1.550900
		CHANNELS 3 Xrotation Yrotation Zrotation
		End Site
		{
			OFFSET 0.000000 30.012791 0.000000
		}
	}
}
MOTION
Frames: 4
Frame Time: 0.033333
9.661979 80.490204 38.623650 -1.925365 11.277692 -5.068379 0.000000 -0.000000 0.000000 -23.541328 -6.404748 11.278545 63.886222 -11.645164 -0.928585 33.669879 4.476665 0.884736 -0.000002 0.000000 -0.000000 -0.000002 0.000000 -0.000000 0.000003 0.000000 0.000000 -20.962289 -13.722643 13.994687 35.748172 -4.287847 -0.324243 12.916620 2.820027 -13.238066 -0.000002 0.000000 0.000000 -0.000002 0.000000 0.000000 -0.000000 -0.000000 -0.000000 7.807601 -6.124536 2.126908 -5.071009 -0.444445 2.541153 -5.054027 -0.335950 2.777086 3.085926 -3.389421 0.270574 7.245370 -2.650020 -0.555464 0.000000 -0.000000 -0.000000 0.000000 -0.000000 -0.000000 0.000000 -0.000000 -0.000000 0.766633 -6.319210 -4.559616 -5.141997 4.005219 -68.588951 16.493186 -11.368399 -0.907842 -0.347488 1.026530 7.998225 11.706473 -4.102582 23.561385 -6.168476 24.275324 -6.957410 -0.000000 -0.000001 -0.000002 2.193142 3.343124 -7.201320 -2.118352 2.380248 -17.557623 -0.000002 -0.000001 0.000001 -1.991773 5.534019 -15.666485 0.204309 4.967412 -29.123175 0.000002 -0.000001 -0.000002 -4.818330 10.155255 -13.301256 3.893764 4.013528 -35.774209 0.000000 0.000000 -0.000004 -6.180337 11.438863 -23.127745 8.483751 2.599747 -31.187398 0.000001 0.000000 -0.000000 -0.000000 -0.000000 -0.000002 0.733239 -2.937234 9.338242 4.824032 -3.572991 66.118034 17.461517 9.899502 -4.525499 0.228133 -6.359621 3.573583 15.439935 0.320877 -16.519733 -6.940416 -23.808650 7.037654 0.000001 0.000001 0.000003 2.255810 -2.392489 3.764704 -2.137097 -2.444049 13.965898 0.000001 0.000000 0.000002 -1.994126 -5.678946 7.844809 0.260332 -5.074295 21.201930 -0.000001 -0.000001 0.000001 -4.961665 -10.111041 6.736429 4.028614 -4.042865 29.223504 0.000001 0.000001 0.000000 -6.476093 -11.318166 16.186462 10.695470 -2.542975 27.739473 0.000002 -0.000002 0.000002 -0.000001 0.000001 0.000001 -0.000000 0.000001 -0.000000 -0.000000 0.000001 -0.000000 -0.000000 0.000001 -0.000000 -0.000000 0.000001 -0.000000 -0.000000 0.000001 0.000000 -0.000000 0.000000 -0.000000 -0.000000 0.000001 -0.000000 -0.000000 0.000001 0.000000 -0.000000 0.000000 -0.000000 -0.000000 -0.000000 -0.000000 -0.000000 -0.000000 -0.000000 0.000000 -0.000000 0.000000 
9.457054 80.945534 40.785934 -1.664427 10.513862 -5.136959 -0.000000 -0.000000 -0.000000 -30.283706 -10.746998 7.986876 72.542592 -5.595258 -0.444268 27.990206 3.680535 5.071868 -0.000000 0.000000 -0.000000 -0.000000 0.000000 -0.000000 -0.000003 0.000000 0.000000 -17.988456 -13.229833 14.900703 33.559899 -3.570537 -0.267126 12.123771 2.844557 -13.714777 -0.000001 -0.000001 -0.000000 -0.000001 -0.000001 -0.000000 -0.000001 0.000000 0.000000 6.873362 -4.452475 0.096020 -4.734584 -0.774995 3.407387 -4.694033 -0.675397 3.592282 3.978425 -3.592141 0.180363 6.727107 -2.867110 -0.571553 0.000000 0.000000 -0.000000 0.000000 0.000000 -0.000000 0.000000 0.000000 -0.000000 0.699324 -6.098804 -4.604702 -3.940016 4.822488 -68.798576 17.412297 -11.068671 -0.612955 -0.293244 1.229472 7.264147 11.254978 -3.612363 24.153898 -5.892173 24.996769 -6.994770 -0.000000 0.000000 0.000001 2.260288 3.459438 -8.358083 -2.130526 2.403303 -18.651339 0.000001 0.000000 -0.000002 -1.984724 5.586139 -16.846293 0.224006 5.009080 -30.262362 -0.000001 -0.000001 -0.000003 -4.878489 10.135267 -14.486071 3.940896 4.030810 -36.964734 0.000001 0.000001 -0.000000 -6.293020 11.392400 -24.289739 8.537948 2.601103 -31.343509 0.000000 0.000002 -0.000002 0.000001 0.000000 -0.000001 0.639715 -1.960555 8.771413 2.580251 -1.793404 66.603449 20.166979 10.029095 -4.906656 0.218019 -6.481861 3.382485 15.487109 -0.066771 -16.609774 -6.813596 -24.005666 7.036384 -0.000001 -0.000000 -0.000002 2.249480 -2.355143 4.124523 -2.137086 -2.451660 14.325528 0.000001 0.000000 0.000000 -1.992473 -5.685073 8.170708 0.261090 -5.078077 21.527969 0.000001 0.000001 0.000002 -4.964482 -10.115743 7.113795 4.026660 -4.043262 29.601818 0.000002 -0.000001 0.000000 -6.474646 -11.322654 16.471042 10.699474 -2.548272 28.025449 0.000001 -0.000002 -0.000000 0.000002 -0.000002 0.000001 0.000000 0.000000 0.000000 0.000000 0.000000 0.000000 0.000000 0.000000 0.000000 0.000000 0.000000 0.000000 0.000000 0.000000 0.000000 0.000001 -0.000000 -0.000000 0.000000 0.000000 0.000000 0.000000 0.000000 0.000000 0.000001 -0.000000 -0.000000 -0.000000 -0.000000 0.000000 -0.000000 -0.000000 0.000000 -0.000000 -0.000000 -0.000000 
9.404671 81.469254 42.952999 -0.873303 9.306844 -4.574014 -0.000000 -0.000001 -0.000000 -36.847026 -13.932529 3.335147 77.389766 -3.699288 -0.294586 24.359523 1.588791 6.985420 0.000001 -0.000001 -0.000000 0.000001 -0.000001 -0.000000 -0.000003 0.000000 -0.000001 -16.129775 -11.701637 15.058079 31.451822 -3.263896 -0.243120 11.796519 2.345633 -13.786651 0.000001 -0.000001 0.000000 0.000001 -0.000001 0.000000 -0.000001 -0.000000 -0.000001 4.888859 -2.897872 -2.041504 -4.105129 -0.943641 3.910613 -4.048430 -0.894945 4.023675 4.792091 -3.556439 0.037542 6.270380 -2.882465 -0.472473 -0.000001 -0.000000 0.000000 -0.000001 -0.000000 0.000000 -0.000001 -0.000000 0.000000 0.646646 -5.657440 -4.717215 -2.363963 5.534553 -68.743969 18.860796 -10.948949 -0.207818 -0.223490 1.156992 6.253722 10.890539 -3.223396 24.638434 -5.668823 25.579540 -7.026155 0.000001 -0.000000 0.000000 2.318205 3.552137 -9.292127 -2.134873 2.421600 -19.534580 -0.000001 -0.000001 -0.000004 -1.978707 5.628324 -17.798814 0.241708 5.043230 -31.182262 0.000000 -0.000001 0.000003 -4.928066 10.120734 -15.442465 3.979769 4.043443 -37.925981 0.000003 0.000001 -0.000002 -6.386046 11.357765 -25.227505 8.602531 2.602491 -31.529502 0.000001 -0.000000 -0.000002 0.000000 0.000001 -0.000001 0.561943 -1.552760 9.239753 0.170569 0.164931 66.196295 21.593302 10.747251 -5.177139 0.187350 -6.079585 3.120103 15.527388 -0.402588 -16.687499 -6.697234 -24.186265 7.035689 -0.000000 -0.000001 -0.000002 2.244253 -2.325393 4.439115 -2.137066 -2.458295 14.639848 -0.000002 0.000000 0.000002 -1.991083 -5.690423 8.458207 0.266027 -5.081099 21.815904 0.000002 0.000001 -0.000000 -4.966999 -10.122736 7.441913 4.025032 -4.044345 29.931033 0.000002 -0.000000 0.000000 -6.470984 -11.326701 16.726182 10.703035 -2.552952 28.281375 -0.000000 0.000002 0.000002 -0.000000 -0.000002 0.000000 0.000000 0.000000 0.000000 0.000000 0.000000 0.000000 0.000000 0.000000 0.000000 0.000000 0.000000 0.000000 0.000000 0.000000 0.000000 0.000000 0.000000 0.000000 0.000000 0.000000 0.000000 0.000000 0.000000 0.000000 0.000000 0.000000 0.000000 -0.000000 -0.000000 0.000000 -0.000000 -0.000000 0.000000 -0.000000 -0.000001 -0.000000 
9.574917 81.983871 45.135223 -0.517979 7.655582 -3.083613 0.000000 -0.000000 0.000000 -41.891647 -15.470175 -1.624676 78.201991 -5.947359 -0.475549 22.019606 1.034012 6.310497 0.000005 0.000000 -0.000001 0.000005 0.000000 -0.000001 -0.000002 0.000000 -0.000000 -14.567204 -9.303806 14.186287 30.109619 -3.191757 -0.239692 11.291806 1.325070 -13.396081 -0.000001 -0.000000 0.000000 -0.000001 -0.000000 0.000000 0.000000 -0.000000 -0.000001 3.680341 -1.577326 -4.190651 -3.683374 -0.813973 4.046043 -3.628043 -0.814286 4.101904 5.570806 -3.297178 -0.391375 5.694318 -2.796932 -0.056277 -0.000000 0.000000 -0.000000 -0.000000 0.000000 -0.000000 -0.000000 0.000000 -0.000000 0.604964 -5.131388 -5.013758 -0.442576 6.477168 -68.514755 19.841192 -10.990184 0.113289 -0.170815 0.928041 5.525735 10.646910 -2.966689 24.965415 -5.519352 25.969431 -7.047868 0.000000 0.000000 -0.000004 2.358783 3.613487 -9.916939 -2.134302 2.433649 -20.125337 -0.000002 -0.000001 -0.000002 -1.974545 5.656592 -18.435780 0.257376 5.064908 -31.797529 0.000002 -0.000001 0.000002 -4.961653 10.111830 -16.082013 4.006126 4.054824 -38.568941 -0.000002 -0.000001 -0.000004 -6.449225 11.336067 -25.854476 8.671545 2.603788 -31.728332 0.000001 0.000000 0.000002 0.000000 0.000000 0.000001 0.583301 -0.913528 9.226670 -1.292998 1.763428 66.382499 21.315916 13.654715 -5.942310 0.132082 -5.800997 2.402243 15.555457 -0.639193 -16.742073 -6.612021 -24.318305 7.035424 0.000003 0.000002 0.000001 2.240785 -2.305798 4.662130 -2.137069 -2.462946 14.862760 -0.000004 0.000001 0.000000 -1.990060 -5.694178 8.663363 0.272217 -5.083031 22.021435 -0.000001 0.000002 -0.000000 -4.968718 -10.127654 7.673846 4.023974 -4.047540 30.163901 0.000000 0.000000 0.000002 -6.465917 -11.329692 16.910327 10.705638 -2.556318 28.465645 -0.000000 0.000001 0.000002 -0.000004 0.000002 -0.000002 -0.000001 0.000001 0.000000 -0.000001 0.000001 0.000000 -0.000001 0.000001 0.000000 -0.000001 0.000001 0.000000 -0.000001 0.000001 0.000000 -0.000000 0.000001 0.000000 -0.000001 0.000001 0.000000 -0.000001 0.000001 0.000000 -0.000000 0.000001 0.000000 -0.000000 -0.000000 0.000000 -0.000000 -0.000000 0.000000 0.000000 -0.000000 0.000000 
